<svg width="140" height="138" viewBox="0 0 140 138" fill="none" xmlns="http://www.w3.org/2000/svg">
<path d="M140 68.6368C139.883 64.935 138.328 61.4239 135.664 58.8465C133 56.2692 129.436 54.828 125.726 54.828C122.016 54.828 118.452 56.2692 115.788 58.8465C113.124 61.4239 111.569 64.935 111.452 68.6368C111.452 68.7688 111.461 68.9007 111.481 69.0312C111.297 91.3464 92.7971 109.379 70.0071 109.379C47.217 109.379 28.5193 91.1773 28.5193 68.7072C28.5193 46.2371 46.9066 28.1765 69.6543 27.9793H70.0071C71.8649 27.9997 73.7086 27.6537 75.4322 26.9611C77.1558 26.2684 78.7254 25.2428 80.0509 23.943C81.3765 22.6432 82.4319 21.0949 83.1565 19.3869C83.8812 17.679 84.2609 15.8449 84.2738 13.9901C84.2609 12.1352 83.8812 10.3012 83.1565 8.59322C82.4319 6.88523 81.3765 5.33693 80.0509 4.03716C78.7254 2.73739 77.1558 1.71175 75.4322 1.0191C73.7086 0.326441 71.8649 -0.0195922 70.0071 0.000856142V0.000856142C31.3416 0.000856142 0 30.7264 0 68.6368C0 106.547 31.3416 137.273 70.0071 137.273C108.673 137.273 139.972 106.575 140 68.6931V68.6368Z" fill="#3CB474"/>
<path d="M111.452 41.9826C119.332 41.9826 125.719 35.7194 125.719 27.9934C125.719 20.2673 119.332 14.0042 111.452 14.0042C103.573 14.0042 97.1858 20.2673 97.1858 27.9934C97.1858 35.7194 103.573 41.9826 111.452 41.9826Z" fill="#3CB474"/>
</svg>
