<svg viewBox="0 0 89 87" fill="none" xmlns="http://www.w3.org/2000/svg">
    <path d="M89 43.5003C88.9259 41.1542 87.9374 38.9289 86.2438 37.2955C84.5501 35.662 82.2843 34.7486 79.926 34.7486C77.5676 34.7486 75.3018 35.662 73.6082 37.2955C71.9146 38.9289 70.9261 41.1542 70.8519 43.5003C70.8513 43.5839 70.8573 43.6675 70.8699 43.7503C70.7533 57.893 58.9924 69.3215 44.5045 69.3215C30.0165 69.3215 18.1301 57.7859 18.1301 43.5449C18.1301 29.3039 29.8192 17.8576 44.2802 17.7326H44.5045C45.6856 17.7455 46.8576 17.5262 47.9533 17.0872C49.049 16.6483 50.0468 15.9982 50.8895 15.1745C51.7322 14.3507 52.4031 13.3694 52.8638 12.287C53.3245 11.2045 53.5658 10.0421 53.574 8.86656C53.5658 7.69101 53.3245 6.52864 52.8638 5.44616C52.4031 4.36369 51.7322 3.38241 50.8895 2.55865C50.0468 1.73489 49.049 1.08487 47.9533 0.645878C46.8576 0.20689 45.6856 -0.0124171 44.5045 0.000542602C19.9243 0.000542602 0 19.4736 0 43.5003C0 67.5269 19.9243 87 44.5045 87C69.0847 87 88.9821 67.5448 89 43.536V43.5003Z" fill="#3CB474"/>
    <path d="M70.8519 26.6075C75.8609 26.6075 79.9214 22.6381 79.9214 17.7415C79.9214 12.8449 75.8609 8.87549 70.8519 8.87549C65.8429 8.87549 61.7823 12.8449 61.7823 17.7415C61.7823 22.6381 65.8429 26.6075 70.8519 26.6075Z" fill="#3CB474"/>
</svg>
